<?xml version="1.0" encoding="utf-8"?>
<!-- Generator: Adobe Illustrator 21.0.0, SVG Export Plug-In . SVG Version: 6.00 Build 0)  -->
<svg version="1.1" id="Layer_1" xmlns="http://www.w3.org/2000/svg" xmlns:xlink="http://www.w3.org/1999/xlink" x="0px" y="0px"
	 viewBox="0 0 432 432" style="enable-background:new 0 0 432 432;" xml:space="preserve">
<style type="text/css">
	.st0{fill:#CDFF00;}
	.st1{fill:#282828;}
</style>
<path class="st0" d="M329.3,32h-225c-40,0-72.5,32.5-72.5,72.5v225c0,40,32.5,72.5,72.5,72.5h225c40,0,72.5-32.5,72.5-72.5v-225
	C401.8,64.4,369.3,32,329.3,32z"/>
<path d="M179.1,183.3c0,0,0,0-0.1,0.1c-1.1,2.3-19.5,40.4-31.6,58.8c2.3-12.9-1.5-28-4.5-36.9c-4-12.2-7.5-24.6-10.1-37.2
	c-1.4-6.8-2.3-11.8-2.3-11.8c-6.3-38.9,18.6-46.8,18.6-46.8c20.3-6.3,31.5,8.2,31.5,8.2C197.7,137.6,179.1,183.3,179.1,183.3z"/>
<path class="st1" d="M246.5,269.1c0,0-40,32.6-54.4,44.4c0,0-0.1,0.1-0.1,0.1c-7.7,4.4-18.9,10.4-18.9,10.4c-3.9,1.9-7.5,3-10.9,3.7
	c-16.6,3.2-31.5-8.6-33.8-25.3c-1.9-13.8,3-25.2,5.4-29.7c1-1.8,2.5-4.8,3.4-6.7l7.1-14.5c1.5-2.9,2.6-6,3.1-9.3
	c12.1-18.3,30.4-56.4,31.6-58.8c-6.5,16.4-6.3,33.3-6.3,33.3c0.2,18.9,5.5,30.6,8.8,37c1,2,3,5.1,4.5,6.8
	c7.3,8.6,17.7,13.1,26.4,14.1C224.1,276,235.8,273.8,246.5,269.1z"/>
<path d="M308.3,309.4c-0.7,2.1-1.6,4.1-2.7,6c-11.7,19.6-39.6,10.7-46.7,7.6c-4.2-1.8-8.3-3.5-12.6-5.1c-19.4-7-31.9-8.6-31.9-8.6
	c-12-2.3-21.2,3.5-22.3,4.3c14.4-11.8,54.4-44.4,54.4-44.4c6.5-2.9,13-6.2,17-8.2c3.6-1.9,7.5-3.4,11.5-4.1c0.8-0.2,1.6-0.3,2.3-0.4
	c16.4-1.9,31.1,10.3,33.7,26.6C312.7,294.1,310.1,304,308.3,309.4z"/>
<circle cx="229.1" cy="215.1" r="36.3"/>
</svg>
