<?xml version="1.0" encoding="utf-8"?>
<!-- Generator: Adobe Illustrator 21.0.0, SVG Export Plug-In . SVG Version: 6.00 Build 0)  -->
<svg version="1.1" id="Layer_1" xmlns="http://www.w3.org/2000/svg" xmlns:xlink="http://www.w3.org/1999/xlink" x="0px" y="0px"
	 viewBox="0 0 432 432" style="enable-background:new 0 0 432 432;" xml:space="preserve">
<style type="text/css">
	.st0{fill:#FFFFFF;}
</style>
<path class="st0" d="M327.9,17H104.1C56,17,17,56,17,104.1v223.8C17,376,56,415,104.1,415h223.8c48.1,0,87.1-39,87.1-87.1V104.1
	C415,56,376,17,327.9,17z"/>
<g>
	<g>
		<g>
			<polygon points="185.1,297 185.1,320.7 100.9,320.7 100.9,111.3 175.3,111.3 244.6,181.6 244.6,169.8 270.2,169.8 270.2,245.2 
				163,136.5 125.4,136.5 125.4,296.9 			"/>
		</g>
		<g>
			<polygon points="246.9,135 246.9,111.3 331.1,111.3 331.1,320.7 256.7,320.7 187.4,250.4 187.4,262.2 161.8,262.2 161.8,186.8 
				269,295.5 306.6,295.5 306.6,135.1 			"/>
		</g>
	</g>
</g>
</svg>
