<?xml version="1.0" encoding="utf-8"?>
<!-- Generator: Adobe Illustrator 21.0.0, SVG Export Plug-In . SVG Version: 6.00 Build 0)  -->
<svg version="1.1" id="Layer_1" xmlns="http://www.w3.org/2000/svg" xmlns:xlink="http://www.w3.org/1999/xlink" x="0px" y="0px"
	 viewBox="0 0 432 76" style="enable-background:new 0 0 432 76;" xml:space="preserve">
<style type="text/css">
	.st0{fill:#FFFFFF;}
</style>
<g>
	<path class="st0" d="M258.3,14c-0.2,0-0.4,0.1-0.5,0.1c-0.2,0-0.3-0.1-0.5-0.1c-0.1,0-0.3,0-0.4,0.1c-0.1,0-0.2-0.1-0.4-0.1
		c-1.7,0-3.1,1-3.9,2.8l-13.5,30.9l-13.5-30.9c-0.8-1.8-2.4-2.8-4.1-2.8c-0.2,0-0.4,0.1-0.5,0.1c-0.2,0-0.3-0.1-0.5-0.1
		c-0.1,0-0.2,0-0.4,0.1c-0.1,0-0.2-0.1-0.4-0.1c-2.2,0-3.5,1.1-4,3.3l-12,43.9h0.7h1.1h6.2h0.7h1.1l8.2-30.2l12,27.8
		c0.8,2,2.2,3.1,4.2,3.1c0.1,0,0.2,0,0.4-0.1c0.1,0,0.2,0.1,0.4,0.1c0.2,0,0.4-0.1,0.5-0.1c0.2,0,0.3,0.1,0.5,0.1
		c2,0,3.3-1.1,4.2-3.1L256.1,31l8.2,30.2h0.7h1.1h6.3h0.7h1.1l-11.9-43.9C261.6,15.1,260.3,14,258.3,14z"/>
	<path class="st0" d="M322.4,36.6c3.5-1.1,6.5-4,6.5-10c0-8-6-12.1-15.2-12.1h-1.1h-0.7h-32.3h-1.1h-0.7v46.7h0.7h1.1h33.3h0.7h1.1
		c9.1,0,15-5.6,15-14.1C329.7,41.7,326.6,38,322.4,36.6z M287.7,53.2V22.8h21.1c6,0,9.9,0.8,9.9,5.7c0,4-2.2,5.7-6.8,5.7h-18.3h-1.1
		h-0.7V41h0.7h1.1h18.9c4.6,0,7.1,2.2,7.1,6c0,4.6-4.2,6.2-10.1,6.2H287.7z"/>
	<polygon class="st0" points="422.9,53.1 422.2,53.1 390.4,53.1 390.4,22.8 422.1,22.8 422.9,22.8 423.9,22.8 423.9,14.6 
		422.9,14.6 422.1,14.6 382.3,14.6 381.2,14.6 380.5,14.6 380.5,61.3 381.2,61.3 382.3,61.3 422.2,61.3 422.9,61.3 424,61.3 
		424,53.1 	"/>
	<path class="st0" d="M143.7,14.2h-6h-1.1H136v32.4l-31.1-30.9c-1.2-1.2-2.2-1.7-3.5-1.7c-0.2,0-0.4,0.1-0.6,0.1
		c-0.2,0-0.3-0.1-0.5-0.1c-0.1,0-0.3,0.1-0.4,0.1c-0.1,0-0.2-0.1-0.4-0.1c-2.6,0-4.2,1.9-4.2,4.9v42.4h0.7h1.1h6h0.7h1.1V29l31,31.2
		c1.2,1.2,2.4,1.7,3.7,1.7c0.1,0,0.3-0.1,0.4-0.1c0.1,0,0.2,0.1,0.4,0.1c0.2,0,0.4-0.1,0.6-0.1c0.2,0,0.3,0.1,0.5,0.1
		c2.4,0,4-1.8,4-4.9V14.2h-1.1H143.7z"/>
	<path class="st0" d="M201.3,14.6h-6.1h-1.1h-0.7v26.1c0,9.1-4,13-16.1,13.2c-12.1-0.2-16.1-4.1-16.1-13.2V14.6h-1.1h-0.7h-6.6h-1.1
		H151v26.1c0,14.4,7.2,21.3,25.2,21.3c0.1,0,0.2,0,0.4,0c0.1,0,0.2,0,0.4,0c0.2,0,0.3,0,0.5,0c0.2,0,0.3,0,0.5,0
		c18.1,0,25.2-6.8,25.2-21.3V14.6h-1.1H201.3z"/>
	<polygon class="st0" points="374.6,53.1 345,53.1 345,14.6 343.9,14.6 343.2,14.6 336.9,14.6 335.8,14.6 335,14.6 335,61.3 
		335.8,61.3 336.9,61.3 374.6,61.3 375.3,61.3 376.4,61.3 376.4,53.1 375.3,53.1 	"/>
	<polygon class="st0" points="420.4,34.1 396.3,34.1 395.3,34.1 394.5,34.1 394.5,41 395.3,41 396.3,41 420.4,41 421.1,41 422.2,41 
		422.2,34.1 421.1,34.1 	"/>
</g>
<g>
	<polygon class="st0" points="34.1,62.6 34.1,69.9 8.3,69.9 8.3,5.6 31.1,5.6 52.4,27.2 52.4,23.6 60.3,23.6 60.3,46.7 27.4,13.3 
		15.8,13.3 15.8,62.6 	"/>
	<polygon class="st0" points="53.2,12.9 53.2,5.6 79,5.6 79,69.9 56.2,69.9 34.9,48.3 34.9,51.9 27,51.9 27,28.8 59.9,62.2 
		71.5,62.2 71.5,12.9 	"/>
</g>
</svg>
